<svg xmlns="http://www.w3.org/2000/svg" width="35.467" height="28.713" viewBox="0 0 35.467 28.713">
  <path id="Icon_awesome-tachometer-alt" data-name="Icon awesome-tachometer-alt" d="M17.733,2.25C7.939,2.25,0,10.514,0,20.708a18.939,18.939,0,0,0,2.405,9.28,1.932,1.932,0,0,0,1.69.974H31.372a1.932,1.932,0,0,0,1.69-.974,18.939,18.939,0,0,0,2.405-9.28C35.467,10.514,27.527,2.25,17.733,2.25Zm0,4.1A1.961,1.961,0,0,1,19.6,7.868a3.509,3.509,0,0,0-.212.427l-.568,1.773a1.871,1.871,0,0,1-1.086.385,2.053,2.053,0,0,1,0-4.1ZM5.911,24.81a2.053,2.053,0,0,1,0-4.1,2.053,2.053,0,0,1,0,4.1ZM8.867,14.556a2.053,2.053,0,1,1,1.97-2.051A2.012,2.012,0,0,1,8.867,14.556ZM24.061,9.915,20.285,21.707a4.145,4.145,0,0,1,.842,5.154H14.339a4.185,4.185,0,0,1-.547-2.051,4.024,4.024,0,0,1,3.688-4.076L21.258,8.941a1.46,1.46,0,0,1,1.869-.972,1.554,1.554,0,0,1,.934,1.946Zm.9,3.666L25.92,10.6a1.876,1.876,0,0,1,.68-.143,2.053,2.053,0,0,1,0,4.1,1.927,1.927,0,0,1-1.636-.975ZM29.555,24.81a2.053,2.053,0,1,1,1.97-2.051A2.012,2.012,0,0,1,29.555,24.81Z" transform="translate(0 -2.25)" fill="#408321"/>
</svg>
