<svg xmlns="http://www.w3.org/2000/svg" width="35.47" height="28.5" viewBox="0 0 35.47 28.5">
  <path id="Icon_awesome-newspaper" data-name="Icon awesome-newspaper" d="M33.992,4.5H5.419A1.651,1.651,0,0,0,3.941,6.281v.594H1.478A1.651,1.651,0,0,0,0,8.656V28.844C0,31.139,1.544,33,3.448,33H32.514c1.632,0,2.956-1.595,2.956-3.562V6.281A1.651,1.651,0,0,0,33.992,4.5ZM3.448,29.438a.55.55,0,0,1-.493-.594V10.438h.985V28.844A.55.55,0,0,1,3.448,29.438ZM17.981,28.25H8.621a.826.826,0,0,1-.739-.891v-.594a.826.826,0,0,1,.739-.891h9.36a.826.826,0,0,1,.739.891v.594A.826.826,0,0,1,17.981,28.25Zm12.809,0H21.43a.826.826,0,0,1-.739-.891v-.594a.826.826,0,0,1,.739-.891h9.36a.826.826,0,0,1,.739.891v.594A.826.826,0,0,1,30.79,28.25ZM17.981,21.125H8.621a.826.826,0,0,1-.739-.891v-.594a.826.826,0,0,1,.739-.891h9.36a.826.826,0,0,1,.739.891v.594A.826.826,0,0,1,17.981,21.125Zm12.809,0H21.43a.826.826,0,0,1-.739-.891v-.594a.826.826,0,0,1,.739-.891h9.36a.826.826,0,0,1,.739.891v.594A.826.826,0,0,1,30.79,21.125Zm0-7.125H8.621a.826.826,0,0,1-.739-.891V10.141a.826.826,0,0,1,.739-.891H30.79a.826.826,0,0,1,.739.891v2.969A.826.826,0,0,1,30.79,14Z" transform="translate(0 -4.5)" fill="#408321"/>
</svg>
