<svg id="Button" xmlns="http://www.w3.org/2000/svg" width="23.74" height="26.615" viewBox="0 0 23.74 26.615">
  <path id="Icon_material-date-range" data-name="Icon material-date-range" d="M12.413,14.977H9.776v2.661h2.638Zm5.276,0H15.051v2.661h2.638Zm5.276,0H20.327v2.661h2.638ZM25.6,5.661H24.284V3H21.646V5.661H11.095V3H8.457V5.661H7.138A2.638,2.638,0,0,0,4.513,8.323L4.5,26.953a2.649,2.649,0,0,0,2.638,2.661H25.6a2.658,2.658,0,0,0,2.638-2.661V8.323A2.658,2.658,0,0,0,25.6,5.661Zm0,21.292H7.138V12.315H25.6Z" transform="translate(-4.5 -3)"/>
</svg>
