<svg xmlns="http://www.w3.org/2000/svg" width="23.533" height="16.061" viewBox="0 0 23.533 16.061">
  <path id="Icon_awesome-eye" data-name="Icon awesome-eye" d="M23.391,11.92A13.079,13.079,0,0,0,11.767,4.5,13.081,13.081,0,0,0,.142,11.92a1.382,1.382,0,0,0,0,1.221,13.079,13.079,0,0,0,11.624,7.42,13.081,13.081,0,0,0,11.624-7.42A1.382,1.382,0,0,0,23.391,11.92ZM11.767,18.554a5.954,5.954,0,0,1-5.883-6.023,5.954,5.954,0,0,1,5.883-6.023,5.954,5.954,0,0,1,5.883,6.023A5.951,5.951,0,0,1,11.767,18.554Zm0-10.038a3.811,3.811,0,0,0-1.034.159,2.037,2.037,0,0,1-.192,2.6,1.921,1.921,0,0,1-2.541.2,4.053,4.053,0,0,0,1.6,4.376,3.84,3.84,0,0,0,4.561-.148A4.063,4.063,0,0,0,15.48,11.23a3.921,3.921,0,0,0-3.714-2.715Z" transform="translate(0 -4.5)" fill="#b6b6b7"/>
</svg>
