<svg xmlns="http://www.w3.org/2000/svg" width="43.034" height="40" viewBox="0 0 43.034 40">
  <path id="Icon_awesome-user-circle" data-name="Icon awesome-user-circle" d="M21.017.563C9.407.563,0,9.29,0,20.063s9.407,19.5,21.017,19.5,21.017-8.728,21.017-19.5S32.627.563,21.017.563Zm0,7.548a7.2,7.2,0,0,1,7.458,6.919,7.2,7.2,0,0,1-7.458,6.919,7.2,7.2,0,0,1-7.458-6.919A7.2,7.2,0,0,1,21.017,8.111Zm0,27.048A16.773,16.773,0,0,1,8.6,29.8a9.561,9.561,0,0,1,8.347-4.7,2.222,2.222,0,0,1,.6.086,11.343,11.343,0,0,0,6.932,0,2.222,2.222,0,0,1,.6-.086,9.561,9.561,0,0,1,8.347,4.7A16.773,16.773,0,0,1,21.017,35.159Z" transform="translate(0.5 -0.063)" fill="#fafafa" stroke="#000" stroke-width="1"/>
</svg>
