<svg xmlns="http://www.w3.org/2000/svg" width="33.334" height="31" viewBox="0 0 33.334 31">
  <path id="Icon_awesome-user-circle" data-name="Icon awesome-user-circle" d="M16.167.563C7.236.563,0,7.276,0,15.563s7.236,15,16.167,15,16.167-6.714,16.167-15S25.1.563,16.167.563Zm0,5.806A5.541,5.541,0,0,1,21.9,11.692a5.541,5.541,0,0,1-5.737,5.323,5.541,5.541,0,0,1-5.737-5.323A5.541,5.541,0,0,1,16.167,6.369Zm0,20.806a12.9,12.9,0,0,1-9.55-4.125,7.355,7.355,0,0,1,6.421-3.617,1.71,1.71,0,0,1,.463.067,8.725,8.725,0,0,0,5.332,0,1.709,1.709,0,0,1,.463-.067,7.355,7.355,0,0,1,6.421,3.617A12.9,12.9,0,0,1,16.167,27.175Z" transform="translate(0.5 -0.063)" fill="#fafafa" stroke="#000" stroke-width="1"/>
</svg>
