<svg xmlns="http://www.w3.org/2000/svg" width="22" height="18.564" viewBox="0 0 22 18.564">
  <path id="Icon_awesome-tasks" data-name="Icon awesome-tasks" d="M6,2.4a.516.516,0,0,0-.73,0L2.532,5.12l-.975-.95a.516.516,0,0,0-.73,0l-.675.675a.516.516,0,0,0,0,.73L2.2,7.612a.549.549,0,0,0,.757,0l.67-.671,3.1-3.1a.519.519,0,0,0,0-.73ZM6,9.24a.516.516,0,0,0-.73,0L2.532,11.978l-.975-.95a.516.516,0,0,0-.73,0L.152,11.7a.516.516,0,0,0,0,.73l2.04,2.041a.549.549,0,0,0,.756,0l.675-.674,3.1-3.1a.516.516,0,0,0,0-.726ZM2.75,16.687a2.063,2.063,0,1,0,0,4.125,2.063,2.063,0,1,0,0-4.125Zm18.563.688H8.938a.687.687,0,0,0-.687.688v1.375a.688.688,0,0,0,.688.688H21.313A.688.688,0,0,0,22,19.437V18.062A.688.688,0,0,0,21.313,17.374Zm0-13.75H8.938a.688.688,0,0,0-.687.688V5.687a.687.687,0,0,0,.688.688H21.313A.688.688,0,0,0,22,5.687V4.312A.688.688,0,0,0,21.313,3.624Zm0,6.875H8.938a.687.687,0,0,0-.687.688v1.375a.688.688,0,0,0,.688.688H21.313A.688.688,0,0,0,22,12.562V11.187A.688.688,0,0,0,21.313,10.5Z" transform="translate(0 -2.248)" fill="#b6b6b7"/>
</svg>
