<svg xmlns="http://www.w3.org/2000/svg" width="21.738" height="16" viewBox="0 0 21.738 16">
  <path id="Icon_awesome-eye" data-name="Icon awesome-eye" d="M21.606,11.892C19.56,7.483,15.508,4.5,10.869,4.5S2.177,7.485.131,11.892a1.474,1.474,0,0,0,0,1.216C2.178,17.517,6.23,20.5,10.869,20.5s8.692-2.985,10.738-7.392A1.474,1.474,0,0,0,21.606,11.892ZM10.869,18.5a5.738,5.738,0,0,1-5.434-6,5.738,5.738,0,0,1,5.434-6,5.738,5.738,0,0,1,5.434,6A5.735,5.735,0,0,1,10.869,18.5Zm0-10a3.284,3.284,0,0,0-.955.158,2.151,2.151,0,0,1-.178,2.591,1.681,1.681,0,0,1-2.347.2A4.2,4.2,0,0,0,8.864,15.8a3.342,3.342,0,0,0,4.213-.147A4.243,4.243,0,0,0,14.3,11.2a3.661,3.661,0,0,0-3.43-2.7Z" transform="translate(0 -4.5)" fill="#b6b6b7"/>
</svg>
