<svg xmlns="http://www.w3.org/2000/svg" width="27" height="26.004" viewBox="0 0 27 26.004">
  <path id="Icon_awesome-search" data-name="Icon awesome-search" d="M26.633,22.482l-5.258-5.063a1.29,1.29,0,0,0-.9-.355h-.86a10.266,10.266,0,0,0,2.321-6.5A10.77,10.77,0,0,0,10.97,0,10.77,10.77,0,0,0,0,10.563,10.77,10.77,0,0,0,10.97,21.126a11.186,11.186,0,0,0,6.751-2.234v.828a1.2,1.2,0,0,0,.369.863l5.258,5.063a1.3,1.3,0,0,0,1.788,0l1.493-1.437a1.193,1.193,0,0,0,.005-1.727ZM10.97,17.063a6.625,6.625,0,0,1-6.751-6.5,6.625,6.625,0,0,1,6.751-6.5,6.625,6.625,0,0,1,6.751,6.5A6.625,6.625,0,0,1,10.97,17.063Z" fill="#f5f5f5"/>
</svg>
