<svg xmlns="http://www.w3.org/2000/svg" width="36.003" height="35.986" viewBox="0 0 36.003 35.986">
  <path id="Icon_map-mosque" data-name="Icon map-mosque" d="M34.576,19.189A13.613,13.613,0,0,1,8.353,20.655,13.582,13.582,0,0,1,16.964,3.473a13.625,13.625,0,0,1,9.871.5L27.508,2.7A18.144,18.144,0,0,0,12.332.927,18,18,0,1,0,36,19.4l-1.423-.207ZM25.7,10.514l-3.61-6.756L20.256,11.3l-7.509,1.476,6.874,3.9-1.182,7.773,5.837-5.309,7.233,3.47L27.814,15.4l5.849-5.646Z" transform="translate(0.005 -0.014)" fill="#408321"/>
</svg>
