<svg xmlns="http://www.w3.org/2000/svg" width="28.65" height="28.65" viewBox="0 0 28.65 28.65">
  <path id="Path_22" data-name="Path 22" d="M14.325,0A14.325,14.325,0,1,0,28.65,14.325,14.325,14.325,0,0,0,14.325,0ZM10.162,21.655H6.673v-10.5h3.489ZM8.418,9.726H8.4A1.818,1.818,0,1,1,8.441,6.1a1.819,1.819,0,1,1-.023,3.627ZM22.742,21.655H19.254V16.04c0-1.411-.5-2.374-1.767-2.374a1.91,1.91,0,0,0-1.79,1.276,2.389,2.389,0,0,0-.115.851v5.861H12.093s.046-9.511,0-10.5h3.489V12.64a3.463,3.463,0,0,1,3.144-1.732c2.3,0,4.016,1.5,4.016,4.724Zm0,0" fill="#fdfefd"/>
</svg>
