<svg xmlns="http://www.w3.org/2000/svg" width="74" height="70.332" viewBox="0 0 74 70.332">
  <path id="Icon_awesome-user-circle" data-name="Icon awesome-user-circle" d="M36.5.563C16.337.563,0,16.078,0,35.229S16.337,69.895,36.5,69.895,73,54.379,73,35.229,56.663.563,36.5.563Zm0,13.419c7.153,0,12.952,5.507,12.952,12.3s-5.8,12.3-12.952,12.3-12.952-5.507-12.952-12.3S29.347,13.982,36.5,13.982Zm0,48.085a28.824,28.824,0,0,1-21.561-9.533,16.534,16.534,0,0,1,14.5-8.359,3.777,3.777,0,0,1,1.045.154,19.267,19.267,0,0,0,12.039,0,3.777,3.777,0,0,1,1.045-.154,16.534,16.534,0,0,1,14.5,8.359A28.824,28.824,0,0,1,36.5,62.067Z" transform="translate(0.5 -0.063)" fill="#fff" stroke="#000" stroke-width="1"/>
</svg>
